<?xml version="1.0" encoding="utf-8"?>
<svg viewBox="0 0 500 500" xmlns="http://www.w3.org/2000/svg">
  <path d="M 53.003 81.191 C 54.997 82.345 57.326 82.75 59.587 82.337 C 61.846 81.926 63.891 80.72 65.363 78.934 L 69.194 82.602 C 66.843 84.959 63.752 86.405 60.459 86.693 C 57.164 86.978 53.877 86.087 51.163 84.17 C 51.704 83.198 52.337 82.195 53.003 81.191 Z" fill="#009245" style=""/>
  <path d="M 80.611 31.316 L 80.593 36.599 L 91.023 36.636 L 91.04 31.352 L 80.611 31.316 Z" fill="#FCEE21" style=""/>
  <path d="M 77.911 100.612 L 61.387 107.281 L 64.672 115.657 L 81.197 108.985 L 77.911 100.612 Z" fill="#FCEE21" style=""/>
  <path d="M 102.518 0.338 L 88.318 26.137 L 96.789 30.936 L 110.988 5.136 L 102.518 0.338 Z" fill="#FBB03B" style=""/>
  <path d="M 69.229 83.461 L 66.512 84.308 L 67.478 87.5 L 70.195 86.652 L 69.229 83.461 Z" fill="#FBB03B" style=""/>
  <path d="M 96.559 144.412 C 93.653 139.898 94.643 134.865 97.161 132.483 C 97.467 133.477 98.058 134.356 98.861 135.006 C 97.316 137.263 97.548 141.779 101.473 144.71 C 99.833 144.975 98.155 144.876 96.559 144.412 Z" fill="#ED1E79" style=""/>
  <path d="M 197.041 57.786 L 187.129 75.059 L 196.249 80.447 L 206.162 63.173 L 197.041 57.786 Z" fill="#0071BC" style=""/>
  <path d="M 210.989 57.21 C 210.528 57.218 210.083 57.39 209.733 57.691 C 209.381 57.994 209.142 58.409 209.057 58.871 L 208.006 58.603 C 208.194 57.936 208.607 57.356 209.17 56.966 C 209.734 56.572 210.415 56.392 211.095 56.456 L 210.989 57.21 Z" fill="#009245" style=""/>
  <path d="M 276.543 93.133 L 273.826 93.223 L 274.002 98.737 L 276.72 98.649 L 276.543 93.133 Z" fill="#FCEE21" style=""/>
  <path d="M 126.806 101.855 L 123.026 115.089 L 129.54 117.005 L 133.32 103.772 L 126.806 101.855 Z" fill="#662D91" style=""/>
  <path d="M 231.076 7.856 L 211.598 18.865 L 215.215 25.45 L 234.693 14.444 L 231.076 7.856 Z" fill="#FBB03B" style=""/>
  <path d="M 185.15 154.173 L 175.08 155.472 L 176.56 167.276 L 186.63 165.977 L 185.15 154.173 Z" fill="#FBB03B" style=""/>
  <path d="M 303.461 40.011 C 304.389 32.613 309.859 28.191 314.601 27.972 C 314.062 29.301 313.916 30.762 314.184 32.174 C 310.584 33.176 306.829 38.129 308.375 44.792 C 306.414 43.58 304.737 41.948 303.461 40.011 Z" fill="#662D91" style=""/>
  <path d="M 305.362 137.751 C 299.798 131.794 299.907 123.972 303.029 119.709 C 303.772 121.105 304.902 122.253 306.274 123.015 C 304.59 126.825 306.134 133.518 312.809 136.841 C 310.421 137.687 307.88 137.999 305.362 137.751 Z" fill="#ED1E79" style=""/>
  <path d="M 314.296 31.024 L 307.529 31.821 L 308.977 44.464 L 315.746 43.666 L 314.296 31.024 Z" fill="#C1272D" style=""/>
  <path d="M 317.698 32.976 L 295.756 49.456 L 304.451 61.375 L 326.394 44.896 L 317.698 32.976 Z" fill="#0071BC" style=""/>
  <path d="M 372.573 92.29 C 372.818 92.743 373.21 93.097 373.685 93.288 C 374.157 93.481 374.684 93.499 375.169 93.339 L 375.461 94.484 C 374.746 94.661 373.99 94.571 373.332 94.232 C 372.675 93.892 372.159 93.327 371.876 92.635 L 372.573 92.29 Z" fill="#009245" style=""/>
  <path d="M 398.883 36.809 L 398.034 39.759 L 403.863 41.484 L 404.711 38.534 L 398.883 36.809 Z" fill="#FCEE21" style=""/>
  <path d="M 396.149 90.991 L 395.82 95.949 L 398.255 96.116 L 398.584 91.157 L 396.149 90.991 Z" fill="#FCEE21" style=""/>
  <path d="M 455.284 49.547 L 452.947 51.624 L 459.071 58.725 L 461.408 56.651 L 455.284 49.547 Z" fill="#FBB03B" style=""/>
  <path d="M 367.331 125.055 L 364.574 131.992 L 370.476 134.408 L 373.233 127.473 L 367.331 125.055 Z" fill="#FBB03B" style=""/>
  <path d="M 447.448 87.933 C 445.995 87.059 444.885 85.705 444.302 84.097 C 443.719 82.49 443.701 80.727 444.25 79.108 C 444.784 79.723 445.48 80.17 446.259 80.392 C 446.132 81.868 446.562 83.336 447.463 84.499 C 448.365 85.664 449.668 86.439 451.109 86.662 C 449.993 87.349 448.745 87.784 447.448 87.933 Z" fill="#ED1E79" style=""/>
  <path d="M 304.046 24.457 L 293.973 25.034 L 294.282 30.575 L 304.355 29.998 L 304.046 24.457 Z" fill="#ED1E79" style=""/>
  <path d="M 490.955 58.137 L 484.244 69.572 L 490.284 73.22 L 496.996 61.785 L 490.955 58.137 Z" fill="#0071BC" style=""/>
  <path d="M 477.221 31.428 L 472.432 39.554 L 476.436 41.984 L 481.226 33.858 L 477.221 31.428 Z" fill="#662D91" style=""/>
  <path d="M 34.045 163.83 L 24.041 172.725 L 40.406 191.671 L 50.411 182.774 L 34.045 163.83 Z" fill="#0071BC" style=""/>
  <path d="M 146.99 107.996 C 144.823 107.66 142.609 108.101 140.73 109.247 C 138.849 110.393 137.426 112.167 136.7 114.266 L 132.064 112.277 C 133.4 109.366 135.694 107.019 138.55 105.64 C 141.407 104.261 144.65 103.937 147.717 104.721 C 147.455 105.77 147.253 106.884 146.99 107.996 Z" fill="#0071BC" style=""/>
  <path d="M 34.198 147.909 C 32.88 149.62 32.185 151.741 32.233 153.914 C 32.282 156.085 33.069 158.173 34.462 159.822 L 30.506 162.957 C 28.712 160.38 27.857 157.249 28.092 154.102 C 28.325 150.953 29.632 147.989 31.788 145.714 L 34.198 147.909 Z" fill="#C1272D" style=""/>
  <path d="M 108.47 170.824 L 106.49 176.265 L 117.229 180.29 L 119.21 174.849 L 108.47 170.824 Z" fill="#009245" style=""/>
  <path d="M 71.164 157.068 L 68.687 157.855 L 69.074 159.111 L 71.552 158.324 L 71.164 157.068 Z" fill="#FCEE21" style=""/>
  <path d="M 112.805 247.337 L 109.418 248.373 L 111.463 255.262 L 114.851 254.227 L 112.805 247.337 Z" fill="#FCEE21" style=""/>
  <path d="M 121.052 230.191 L 114.497 251.516 L 121.503 253.734 L 128.059 232.407 L 121.052 230.191 Z" fill="#FBB03B" style=""/>
  <path d="M 34.245 313.593 L 29.485 314.948 L 30.639 319.129 L 35.401 317.775 L 34.245 313.593 Z" fill="#FBB03B" style=""/>
  <path d="M 108.285 210.236 C 111.453 199.638 120.554 194.559 127.568 195.391 C 126.451 197.207 125.877 199.315 125.916 201.456 C 120.4 202.006 113.695 208.323 114.327 218.48 C 111.752 216.205 109.691 213.392 108.285 210.236 Z" fill="#662D91" style=""/>
  <path d="M 124.88 302.565 C 132.931 302.377 138.554 307.676 139.574 312.865 C 138.043 312.465 136.428 312.543 134.94 313.084 C 133.286 309.275 127.384 305.968 120.507 308.757 C 121.504 306.395 122.998 304.282 124.88 302.565 Z" fill="#ED1E79" style=""/>
  <path d="M 8.804 165.709 L 1.661 171.096 L 11.44 184.445 L 18.582 179.06 L 8.804 165.709 Z" fill="#ED1E79" style=""/>
  <path d="M 160.127 164.106 L 157.365 171.475 L 170.927 176.709 L 173.687 169.337 L 160.127 164.106 Z" fill="#0071BC" style=""/>
  <path d="M 295.581 103.389 C 293.797 99.204 290.629 95.782 286.623 93.717 C 282.617 91.65 278.024 91.067 273.642 92.072 L 271.925 81.676 C 278.378 80.825 284.921 82.285 290.425 85.804 C 295.929 89.325 300.048 94.684 302.071 100.958 L 295.581 103.389 Z" fill="#0071BC" style=""/>
  <path d="M 208.254 255.255 C 207.523 255.999 207.074 256.978 206.98 258.024 C 206.889 259.068 207.157 260.113 207.743 260.977 L 205.703 262.231 C 204.98 260.898 204.738 259.352 205.021 257.857 C 205.301 256.362 206.09 255.015 207.249 254.048 L 208.254 255.255 Z" fill="#009245" style=""/>
  <path d="M 184.334 128.345 C 184.28 126.79 183.694 125.305 182.676 124.142 C 181.658 122.981 180.273 122.216 178.757 121.98 C 179.005 120.804 179.236 119.643 179.484 118.469 C 181.637 119.014 183.536 120.301 184.851 122.112 C 186.169 123.924 186.823 126.144 186.698 128.392 L 184.334 128.345 Z" fill="#C1272D" style=""/>
  <path d="M 218.107 184.522 L 217.578 195.998 L 223.227 196.266 L 223.757 184.789 L 218.107 184.522 Z" fill="#009245" style=""/>
  <path d="M 180.553 135.687 L 180.37 150.672 L 187.755 150.764 L 187.937 135.778 L 180.553 135.687 Z" fill="#FCEE21" style=""/>
  <path d="M 265.77 250.19 L 264.551 257.31 L 278.601 259.785 L 279.821 252.666 L 265.77 250.19 Z" fill="#FCEE21" style=""/>
  <path d="M 167.659 204.806 L 160.932 212.581 L 176.282 226.25 L 183.009 218.476 L 167.659 204.806 Z" fill="#662D91" style=""/>
  <path d="M 287.989 230.237 L 261.322 240.591 L 264.722 249.609 L 291.391 239.255 L 287.989 230.237 Z" fill="#FBB03B" style=""/>
  <path d="M 243.173 311.272 L 239.937 316.45 L 244.346 319.286 L 247.582 314.109 L 243.173 311.272 Z" fill="#FBB03B" style=""/>
  <path d="M 322.776 195.517 C 321.028 205.47 313.319 211.082 306.875 211.066 C 307.696 209.298 307.998 207.329 307.741 205.39 C 312.686 204.295 318.094 197.836 316.44 188.697 C 319.018 190.474 321.179 192.801 322.776 195.517 Z" fill="#662D91" style=""/>
  <path d="M 279.219 286.311 C 280.873 285.692 282.682 285.665 284.353 286.236 C 286.021 286.807 287.448 287.94 288.397 289.444 C 287.551 289.467 286.73 289.74 286.032 290.228 C 284.935 289.168 283.483 288.566 281.967 288.547 C 280.452 288.527 278.984 289.088 277.859 290.118 C 278.035 288.763 278.499 287.463 279.219 286.311 Z" fill="#ED1E79" style=""/>
  <path d="M 307.403 255.208 L 307.281 258.356 L 313.009 258.585 L 313.131 255.438 L 307.403 255.208 Z" fill="#C1272D" style=""/>
  <path d="M 164.395 165.781 L 163.197 169.158 L 169.348 171.401 L 170.545 168.023 L 164.395 165.781 Z" fill="#ED1E79" style=""/>
  <path d="M 380.049 151.698 L 368.75 177.016 L 382.121 183.16 L 393.42 157.84 L 380.049 151.698 Z" fill="#0071BC" style=""/>
  <path d="M 461.54 156.45 C 466.068 154.287 469.711 150.584 471.835 145.985 C 473.959 141.385 474.433 136.176 473.174 131.261 L 484.529 128.94 C 485.694 136.202 484.325 143.648 480.658 149.995 C 476.992 156.343 471.257 161.192 464.443 163.709 C 463.471 161.295 462.452 158.864 461.54 156.45 Z" fill="#0071BC" style=""/>
  <path d="M 387.221 282.955 C 388.136 283.358 389.163 283.42 390.12 283.134 C 391.076 282.846 391.905 282.229 392.459 281.389 L 394.298 282.8 C 393.39 283.931 392.123 284.707 390.713 284.992 C 389.303 285.279 387.838 285.057 386.572 284.367 C 386.743 283.879 387.004 283.425 387.221 282.955 Z" fill="#009245" style=""/>
  <path d="M 365.203 128.768 C 367.066 127.871 368.56 126.341 369.428 124.443 C 370.294 122.543 370.477 120.397 369.945 118.376 L 374.581 117.388 C 375.073 120.375 374.523 123.444 373.025 126.064 C 371.529 128.685 369.177 130.695 366.376 131.748 C 366.022 130.76 365.62 129.755 365.203 128.768 Z" fill="#C1272D" style=""/>
  <path d="M 461.693 200.633 L 459.773 200.851 L 460.208 204.762 L 462.128 204.542 L 461.693 200.633 Z" fill="#009245" style=""/>
  <path d="M 400.706 148.355 L 399.224 152.528 L 407.465 155.542 L 408.948 151.368 L 400.706 148.355 Z" fill="#FCEE21" style=""/>
  <path d="M 366.391 258.07 L 366.332 263.196 L 376.452 263.318 L 376.512 258.192 L 366.391 258.07 Z" fill="#FCEE21" style=""/>
  <path d="M 407.107 201.784 L 389.777 206.485 L 391.321 212.345 L 408.65 207.644 L 407.107 201.784 Z" fill="#FBB03B" style=""/>
  <path d="M 365.965 270.294 L 363.234 271.266 L 364.06 273.654 L 366.79 272.682 L 365.965 270.294 Z" fill="#FBB03B" style=""/>
  <path d="M 485.734 204.137 C 485.734 198.744 489.319 195.091 492.703 194.512 C 492.415 195.51 492.415 196.571 492.703 197.568 C 490.216 198.603 487.944 202.476 489.614 207.13 C 488.126 206.424 486.806 205.401 485.734 204.137 Z" fill="#662D91" style=""/>
  <path d="M 415.078 294.337 C 416.714 294.048 418.398 294.339 419.846 295.16 C 421.296 295.984 422.42 297.287 423.036 298.85 C 422.248 298.733 421.443 298.848 420.719 299.18 C 419.881 298.013 418.64 297.21 417.245 296.932 C 415.848 296.657 414.401 296.928 413.194 297.69 C 413.574 296.446 414.217 295.301 415.078 294.337 Z" fill="#ED1E79" style=""/>
  <path d="M 291.093 120.92 L 288.446 123.557 L 293.232 128.499 L 295.878 125.863 L 291.093 120.92 Z" fill="#ED1E79" style=""/>
  <path d="M 479.847 229.675 L 471.895 234.162 L 474.268 238.493 L 482.22 234.002 L 479.847 229.675 Z" fill="#0071BC" style=""/>
  <path d="M 481.417 247.401 L 476.071 247.431 L 476.13 258.278 L 481.476 258.248 L 481.417 247.401 Z" fill="#662D91" style=""/>
  <path d="M 21.939 379.79 L 17.476 390.248 L 23.005 392.677 L 27.469 382.219 L 21.939 379.79 Z" fill="#0071BC" style=""/>
  <path d="M 152.876 273.974 C 151.383 275.825 150.573 278.146 150.587 280.541 C 150.602 282.933 151.44 285.245 152.954 287.079 L 148.597 290.4 C 146.642 287.561 145.727 284.117 146.009 280.666 C 146.291 277.214 147.755 273.97 150.143 271.496 L 152.876 273.974 Z" fill="#0071BC" style=""/>
  <path d="M 47.27 394.819 C 46.647 394.516 45.943 394.44 45.272 394.604 C 44.6 394.77 44.008 395.167 43.592 395.727 L 42.373 394.693 C 43.041 393.935 43.95 393.442 44.939 393.294 C 45.93 393.143 46.941 393.352 47.796 393.877 C 47.61 394.189 47.441 394.505 47.27 394.819 Z" fill="#009245" style=""/>
  <path d="M 26.599 254.692 C 25.758 256.468 25.56 258.485 26.033 260.395 C 26.507 262.304 27.626 263.986 29.193 265.146 C 28.235 266.323 27.293 267.497 26.335 268.658 C 24.232 266.772 22.844 264.199 22.412 261.386 C 21.982 258.572 22.532 255.694 23.971 253.249 L 26.599 254.692 Z" fill="#C1272D" style=""/>
  <path d="M 76.491 324.877 L 72.142 329.015 L 74.181 331.222 L 78.531 327.084 L 76.491 324.877 Z" fill="#009245" style=""/>
  <path d="M 44.093 345.23 L 35.049 347.569 L 39.666 365.95 L 48.71 363.611 L 44.093 345.23 Z" fill="#FCEE21" style=""/>
  <path d="M 87.177 382.628 L 77.733 386.967 L 79.869 391.751 L 89.314 387.41 L 87.177 382.628 Z" fill="#FCEE21" style=""/>
  <path d="M 88.249 392.989 L 84.676 402.1 L 111.604 412.969 L 115.177 403.856 L 88.249 392.989 Z" fill="#FBB03B" style=""/>
  <path d="M 77.935 491.531 L 72.085 492.86 L 73.216 497.984 L 79.066 496.656 L 77.935 491.531 Z" fill="#FBB03B" style=""/>
  <path d="M 173.521 377.324 C 180.272 385.036 179.839 394.865 175.745 400.084 C 174.861 398.302 173.495 396.81 171.805 395.79 C 174.059 391.087 172.392 382.607 164.079 378.171 C 167.126 377.19 170.35 376.9 173.521 377.324 Z" fill="#662D91" style=""/>
  <path d="M 133.348 434.15 C 140.936 429.445 149.139 431.468 152.893 435.873 C 151.246 436.342 149.769 437.29 148.644 438.6 C 145.028 435.873 137.612 435.966 132.544 442.425 C 132.215 439.639 132.49 436.815 133.348 434.15 Z" fill="#ED1E79" style=""/>
  <path d="M 156.632 378.883 L 153.903 390.453 L 160.003 391.936 L 162.734 380.364 L 156.632 378.883 Z" fill="#0071BC" style=""/>
  <path d="M 243.173 309.041 C 246.349 305.436 248.186 300.82 248.363 295.988 C 248.541 291.155 247.049 286.414 244.146 282.579 L 253.247 276.309 C 256.927 282.227 258.455 289.265 257.568 296.206 C 256.679 303.147 253.429 309.556 248.379 314.323 L 243.173 309.041 Z" fill="#0071BC" style=""/>
  <path d="M 207.882 421.09 C 207.745 422.764 208.192 424.434 209.143 425.808 C 210.094 427.183 211.491 428.176 213.089 428.615 C 212.672 429.853 212.269 431.076 211.868 432.3 C 209.625 431.446 207.744 429.824 206.553 427.716 C 205.363 425.605 204.936 423.14 205.348 420.745 L 207.882 421.09 Z" fill="#009245" style=""/>
  <path d="M 210.603 307.27 C 211.718 306.642 212.585 305.641 213.05 304.436 C 213.516 303.232 213.551 301.898 213.151 300.67 L 215.994 299.902 C 216.402 301.723 216.173 303.633 215.349 305.304 C 214.523 306.973 213.15 308.3 211.466 309.057 C 211.173 308.46 210.881 307.865 210.603 307.27 Z" fill="#C1272D" style=""/>
  <path d="M 277.559 332.948 L 274.655 333.213 L 274.785 334.687 L 277.689 334.422 L 277.559 332.948 Z" fill="#009245" style=""/>
  <path d="M 214.235 345.81 L 209.81 354.712 L 227.375 363.694 L 231.798 354.789 L 214.235 345.81 Z" fill="#FCEE21" style=""/>
  <path d="M 207.931 399.161 L 204.448 402.875 L 211.78 409.951 L 215.262 406.239 L 207.931 399.161 Z" fill="#FCEE21" style=""/>
  <path d="M 145.392 420.447 L 140.502 422.475 L 141.501 424.955 L 146.391 422.929 L 145.392 420.447 Z" fill="#662D91" style=""/>
  <path d="M 243.397 335.339 L 237.168 340.263 L 251.727 359.217 L 257.955 354.293 L 243.397 335.339 Z" fill="#FBB03B" style=""/>
  <path d="M 199.523 414.547 L 199.163 416.823 L 201.757 417.243 L 202.116 414.969 L 199.523 414.547 Z" fill="#FBB03B" style=""/>
  <path d="M 272.081 361.335 C 277.134 355.662 284.303 355.191 288.412 357.824 C 287.19 358.624 286.224 359.767 285.631 361.115 C 282.015 359.814 276.006 361.743 273.457 368.28 C 272.51 366.091 272.041 363.723 272.081 361.335 Z" fill="#662D91" style=""/>
  <path d="M 295.767 409.523 C 298.641 398.816 307.619 393.438 314.648 394.113 C 313.563 395.958 313.029 398.08 313.104 400.226 C 307.601 400.932 301.067 407.454 301.978 417.595 C 299.361 415.389 297.242 412.634 295.767 409.523 Z" fill="#ED1E79" style=""/>
  <path d="M 279.176 391.141 L 274.032 392.302 L 276.145 401.927 L 281.288 400.766 L 279.176 391.141 Z" fill="#C1272D" style=""/>
  <path d="M 132.689 286.358 L 124.931 288.598 L 129.003 303.117 L 136.761 300.879 L 132.689 286.358 Z" fill="#ED1E79" style=""/>
  <path d="M 360.372 401.024 L 346.901 401.721 L 347.269 409.048 L 360.741 408.351 L 360.372 401.024 Z" fill="#0071BC" style=""/>
  <path d="M 406.829 323.571 C 406.647 322.887 406.243 322.285 405.681 321.864 C 405.12 321.443 404.435 321.227 403.738 321.251 L 403.738 319.606 C 404.751 319.643 405.72 320.04 406.474 320.727 C 407.228 321.415 407.719 322.349 407.863 323.367 L 406.829 323.571 Z" fill="#0071BC" style=""/>
  <path d="M 318.897 406.498 C 319.082 406.901 319.402 407.226 319.801 407.412 C 320.201 407.599 320.651 407.636 321.075 407.516 C 321.152 407.86 321.214 408.191 321.292 408.534 C 320.664 408.644 320.02 408.526 319.468 408.204 C 318.919 407.879 318.497 407.368 318.278 406.763 L 318.897 406.498 Z" fill="#009245" style=""/>
  <path d="M 332.664 287.657 C 332.913 287.52 333.105 287.296 333.209 287.024 C 333.309 286.755 333.314 286.458 333.221 286.186 L 333.854 286.012 C 333.95 286.419 333.902 286.849 333.718 287.224 C 333.535 287.599 333.228 287.897 332.849 288.066 L 332.664 287.657 Z" fill="#C1272D" style=""/>
  <path d="M 386.705 313.702 L 383.409 318.658 L 393.194 325.356 L 396.49 320.399 L 386.705 313.702 Z" fill="#009245" style=""/>
  <path d="M 411.561 337.847 L 399.181 351.764 L 406.028 358.035 L 418.41 344.118 L 411.561 337.847 Z" fill="#FCEE21" style=""/>
  <path d="M 429.158 396.097 L 423.061 400.859 L 432.466 413.259 L 438.563 408.495 L 429.158 396.097 Z" fill="#FCEE21" style=""/>
  <path d="M 421.243 403.549 L 396.6 403.549 L 396.6 411.873 L 421.243 411.873 L 421.243 403.549 Z" fill="#FBB03B" style=""/>
  <path d="M 395.715 421.541 L 394.534 423.114 L 396.331 424.5 L 397.508 422.929 L 395.715 421.541 Z" fill="#FBB03B" style=""/>
  <path d="M 461.06 377.418 C 461.385 379.264 461.075 381.169 460.18 382.81 C 459.287 384.451 457.861 385.73 456.147 386.432 C 456.267 385.539 456.133 384.63 455.76 383.814 C 457.783 382.653 459.313 379.111 457.305 375.302 C 458.694 375.721 459.976 376.443 461.06 377.418 Z" fill="#662D91" style=""/>
  <path d="M 398.7 449.261 C 397.736 448.219 397.153 446.873 397.046 445.447 C 396.94 444.021 397.316 442.602 398.114 441.423 C 398.401 442.062 398.862 442.607 399.442 442.989 C 399.02 444.14 399.042 445.409 399.503 446.543 C 399.964 447.676 400.832 448.592 401.929 449.103 C 400.877 449.387 399.776 449.44 398.7 449.261 Z" fill="#ED1E79" style=""/>
  <path d="M 288.067 289.763 L 282.76 290.533 L 284.155 300.449 L 289.463 299.679 L 288.067 289.763 Z" fill="#ED1E79" style=""/>
  <path d="M 487.836 418.159 C 487.106 416.4 485.79 414.957 484.119 414.078 C 482.449 413.2 480.528 412.941 478.689 413.348 C 478.474 411.889 478.24 410.431 478.009 408.99 C 480.713 408.654 483.447 409.289 485.738 410.784 C 488.029 412.278 489.733 414.537 490.556 417.171 L 487.836 418.159 Z" fill="#009245" style=""/>
  <path d="M 463.756 399.417 L 451.967 400.475 L 452.485 406.439 L 464.274 405.382 L 463.756 399.417 Z" fill="#662D91" style=""/>
</svg>